<svg width="22" height="22" viewBox="0 0 22 22" fill="none" xmlns="http://www.w3.org/2000/svg">
<g id="settings-3-line">
<path id="Shape" fill-rule="evenodd" clip-rule="evenodd" d="M2.16516 13.4512C2.37294 14.1968 2.67416 14.9132 3.06166 15.5833C3.44812 16.254 3.91782 16.873 4.45958 17.4258C5.32678 16.8616 6.43729 16.8318 7.33348 17.3488C8.22968 17.8658 8.75987 18.842 8.70558 19.8752C10.2105 20.2654 11.7901 20.266 13.2953 19.877C13.2406 18.8438 13.7703 17.8673 14.6664 17.3499C15.5624 16.8325 16.673 16.8619 17.5404 17.4258C18.6297 16.3167 19.4186 14.9486 19.833 13.4503C18.9113 12.9806 18.3311 12.0334 18.3315 10.999C18.3319 9.96453 18.9128 9.0178 19.8348 8.54884C19.6322 7.81917 19.3352 7.10325 18.9383 6.41667C18.5423 5.73009 18.0712 5.115 17.5404 4.57417C16.6732 5.13842 15.5627 5.1682 14.6665 4.65122C13.7703 4.13425 13.2401 3.15802 13.2944 2.12484C11.7895 1.73462 10.2099 1.73399 8.70466 2.123C8.75944 3.15621 8.22965 4.13273 7.33363 4.6501C6.43761 5.16747 5.32703 5.13813 4.45958 4.57417C3.37033 5.68329 2.58136 7.05145 2.16699 8.54975C3.08869 9.0194 3.66886 9.96657 3.66847 11.001C3.66808 12.0355 3.08721 12.9822 2.16516 13.4512ZM10.3125 18.3022C9.96127 17.2306 9.22682 16.3264 8.24999 15.763C7.27393 15.1988 6.12399 15.0147 5.02058 15.246C4.75524 14.8714 4.52509 14.4731 4.33308 14.0562C5.06916 13.2339 5.49999 12.155 5.49999 11C5.5008 9.87231 5.08527 8.78401 4.33308 7.94383C4.52387 7.52663 4.75343 7.12826 5.01874 6.754C6.12285 6.98548 7.27355 6.80104 8.24999 6.23608C9.22716 5.67285 9.96196 4.76864 10.3134 3.69692C10.7708 3.65384 11.2301 3.65475 11.6875 3.69784C12.0387 4.7694 12.7732 5.67359 13.75 6.237C14.7261 6.80119 15.876 6.98528 16.9794 6.754C17.2448 7.12858 17.4749 7.52689 17.6669 7.94383C16.9308 8.76608 16.5 9.845 16.5 11C16.4992 12.1277 16.9147 13.216 17.6669 14.0562C17.4762 14.4733 17.2471 14.872 16.9812 15.246C15.8771 15.0145 14.7264 15.199 13.75 15.7639C12.7728 16.3272 12.038 17.2314 11.6866 18.3031C11.2292 18.3462 10.7699 18.3453 10.3125 18.3022ZM11 13.75C9.48121 13.75 8.24999 12.5188 8.24999 11C8.24999 9.48122 9.48121 8.25 11 8.25C12.5188 8.25 13.75 9.48122 13.75 11C13.75 12.5188 12.5188 13.75 11 13.75ZM11.9167 11C11.9167 11.5063 11.5063 11.9167 11 11.9167C10.4937 11.9167 10.0833 11.5063 10.0833 11C10.0833 10.4937 10.4937 10.0833 11 10.0833C11.5063 10.0833 11.9167 10.4937 11.9167 11Z" fill="#68727F"/>
</g>
</svg>
